<svg width="16" height="16" viewBox="0 0 16 16" fill="none" xmlns="http://www.w3.org/2000/svg">
<g clip-path="url(#clip0_66_1406)">
<path d="M4 13.404C4 10.882 7 11.3867 7 10.378C7.03353 10.0198 6.93645 9.66159 6.72667 9.36934C6.48742 9.1425 6.29896 8.86753 6.1737 8.56256C6.04845 8.25758 5.98925 7.92953 6 7.60001C5.96745 7.03489 6.15928 6.47977 6.53379 6.05532C6.90831 5.63087 7.43523 5.37141 8 5.33334C8.56477 5.37141 9.09169 5.63087 9.46621 6.05532C9.84072 6.47977 10.0326 7.03489 10 7.60001C10.012 7.9305 9.95237 8.25967 9.82522 8.56496C9.69806 8.87024 9.50639 9.14442 9.26333 9.36868C9.06199 9.66478 8.96898 10.0213 9 10.378C9 11.3867 12 10.8827 12 13.4047C12 13.4047 11.2033 14.0007 8 14.0007C4.79667 14.0007 4 13.404 4 13.404Z" stroke="black" stroke-miterlimit="10"/>
<path d="M3.65717 10.6447C3.27784 10.6273 2.94317 10.6013 2.64917 10.5687C1.95909 10.555 1.28115 10.3847 0.666504 10.0707C0.666504 7.54867 3.6665 8.05333 3.6665 7.04467C3.70003 6.68648 3.60296 6.32825 3.39317 6.036C3.15392 5.80916 2.96546 5.53419 2.84021 5.22922C2.71495 4.92424 2.65575 4.59618 2.6665 4.26667C2.63395 3.70155 2.82578 3.14642 3.2003 2.72197C3.57481 2.29753 4.10173 2.03807 4.6665 2C5.23128 2.03807 5.7582 2.29753 6.13271 2.72197C6.50722 3.14642 6.69906 3.70155 6.6665 4.26667" stroke="black" stroke-miterlimit="10"/>
<path d="M12.3425 10.6447C12.7218 10.6273 13.0565 10.6013 13.3505 10.5687C14.0406 10.555 14.7185 10.3847 15.3331 10.0707C15.3331 7.54867 12.3331 8.05333 12.3331 7.04467C12.2996 6.68648 12.3967 6.32825 12.6065 6.036C12.8457 5.80916 13.0342 5.53419 13.1594 5.22922C13.2847 4.92424 13.3439 4.59618 13.3331 4.26667C13.3657 3.70155 13.1739 3.14642 12.7994 2.72197C12.4248 2.29753 11.8979 2.03807 11.3331 2C10.7684 2.03807 10.2415 2.29753 9.86694 2.72197C9.49243 3.14642 9.30059 3.70155 9.33315 4.26667" stroke="black" stroke-miterlimit="10"/>
</g>
<defs>
<clipPath id="clip0_66_1406">
<rect width="16" height="16" fill="white"/>
</clipPath>
</defs>
</svg>
