<svg width="20" height="20" viewBox="0 0 20 20" fill="none" xmlns="http://www.w3.org/2000/svg">
<path d="M15 5.96669C14.95 5.95836 14.8917 5.95836 14.8417 5.96669C13.6917 5.92502 12.775 4.98336 12.775 3.81669C12.775 2.62502 13.7334 1.66669 14.925 1.66669C16.1167 1.66669 17.075 2.63336 17.075 3.81669C17.0667 4.98336 16.15 5.92502 15 5.96669Z" stroke="#F44848" stroke-width="1.5" stroke-linecap="round" stroke-linejoin="round"/>
<path d="M14.1417 12.0334C15.2834 12.225 16.5417 12.025 17.425 11.4334C18.6 10.65 18.6 9.3667 17.425 8.58337C16.5334 7.9917 15.2584 7.79169 14.1167 7.99169" stroke="#F44848" stroke-width="1.5" stroke-linecap="round" stroke-linejoin="round"/>
<path d="M4.97503 5.96669C5.02503 5.95836 5.08336 5.95836 5.13336 5.96669C6.28336 5.92502 7.20002 4.98336 7.20002 3.81669C7.20002 2.62502 6.24169 1.66669 5.05003 1.66669C3.85836 1.66669 2.90002 2.63336 2.90002 3.81669C2.90836 4.98336 3.82503 5.92502 4.97503 5.96669Z" stroke="#F44848" stroke-width="1.5" stroke-linecap="round" stroke-linejoin="round"/>
<path d="M5.83334 12.0334C4.69168 12.225 3.43335 12.025 2.55001 11.4334C1.37501 10.65 1.37501 9.3667 2.55001 8.58337C3.44168 7.9917 4.71668 7.79169 5.85834 7.99169" stroke="#F44848" stroke-width="1.5" stroke-linecap="round" stroke-linejoin="round"/>
<path d="M9.99996 12.1917C9.94996 12.1833 9.89163 12.1833 9.84163 12.1917C8.69163 12.15 7.77496 11.2083 7.77496 10.0417C7.77496 8.85 8.7333 7.89166 9.92496 7.89166C11.1166 7.89166 12.075 8.85833 12.075 10.0417C12.0666 11.2083 11.15 12.1583 9.99996 12.1917Z" stroke="#F44848" stroke-width="1.5" stroke-linecap="round" stroke-linejoin="round"/>
<path d="M7.57498 14.8167C6.39998 15.6 6.39998 16.8833 7.57498 17.6667C8.90831 18.5583 11.0916 18.5583 12.425 17.6667C13.6 16.8833 13.6 15.6 12.425 14.8167C11.1 13.9333 8.90831 13.9333 7.57498 14.8167Z" stroke="#F44848" stroke-width="1.5" stroke-linecap="round" stroke-linejoin="round"/>
</svg>
