<svg width="35" height="40" viewBox="0 0 35 40" fill="none" xmlns="http://www.w3.org/2000/svg">
<path d="M8.98804 13.9941C8.98804 13.2841 9.56387 12.7083 10.2739 12.7083H24.3689C25.0789 12.7083 25.6547 13.2841 25.6547 13.9941C25.6547 14.2933 25.5505 14.5833 25.3589 14.8141L19.4055 22.0116V26.1883C19.4055 26.7966 18.9105 27.2916 18.3022 27.2916C18.058 27.2916 17.8205 27.21 17.6247 27.0608L15.6389 25.5175C15.3847 25.3191 15.2355 25.0158 15.2355 24.6941V22.0116L9.2847 14.8141C9.09304 14.5833 8.98804 14.2933 8.98804 13.9941ZM10.2739 13.75C10.1372 13.75 10.0297 13.8608 10.0297 13.9941C10.0297 14.0525 10.0489 14.105 10.0847 14.1508L16.1589 21.4916C16.2372 21.5858 16.2789 21.7033 16.2789 21.8233V24.6941L18.2647 26.2375C18.2747 26.2475 18.2872 26.2508 18.3005 26.2508C18.333 26.2508 18.3622 26.225 18.3622 26.1891V21.8241C18.3622 21.7041 18.4047 21.5866 18.4822 21.4925L24.5564 14.1516C24.5922 14.1091 24.6114 14.0541 24.6114 13.995C24.6114 13.8583 24.5005 13.7508 24.3672 13.7508H10.2722L10.2739 13.75Z" fill="#F44848"/>
</svg>
