<svg width="14" height="16" viewBox="0 0 14 16" fill="none" xmlns="http://www.w3.org/2000/svg">
<path d="M7.27443 1.33647C7.34658 1.40863 7.38813 1.50872 7.38813 1.61075C7.38813 1.71278 7.34662 1.81287 7.27443 1.88502C7.20231 1.95718 7.10222 1.99869 7.00019 1.99869C6.89816 1.99869 6.79807 1.95718 6.72591 1.88502C6.65375 1.81287 6.61224 1.71278 6.61224 1.61075C6.61224 1.50872 6.65372 1.40863 6.72591 1.33647C6.79807 1.26431 6.89816 1.2228 7.00019 1.2228C7.10222 1.2228 7.20227 1.26431 7.27443 1.33647ZM13.828 5.32892V15.6288C13.828 15.843 13.6501 16 13.4359 16H0.564459C0.350236 16 0.172363 15.843 0.172363 15.6288V5.32892C0.172363 5.11466 0.350236 4.94362 0.564459 4.94362H5.37082V3.89617H5.05457C4.84035 3.89617 4.66662 3.72248 4.66662 3.50822C4.66662 3.29396 4.84035 3.12028 5.05457 3.12028H5.37082V1.63554C5.37082 0.733681 6.09826 0 7.00019 0C7.90212 0 8.62956 0.73372 8.62956 1.63554V3.12024H8.94581C9.16003 3.12024 9.33375 3.29392 9.33375 3.50818C9.33375 3.72245 9.16003 3.89613 8.94581 3.89613H8.62956V4.94358H13.4359C13.6501 4.94358 13.828 5.11466 13.828 5.32892ZM6.14667 3.12024H7.85363V1.63554C7.85363 1.16151 7.47426 0.775889 7.00015 0.775889C6.52604 0.775889 6.14667 1.16154 6.14667 1.63554V3.12024ZM6.14667 4.94358H7.85363V3.89613H6.14667V4.94358ZM13.0521 5.71947H8.2479H5.7524H0.948214V15.2241H13.0521V5.71947ZM3.35898 9.7326C3.11601 9.48036 2.83242 9.01762 2.86128 8.24553C2.89798 7.26512 3.69944 6.79101 4.42858 6.76541C4.43758 6.76509 4.44678 6.76509 4.45578 6.76541C5.18484 6.79101 5.98622 7.26512 6.02292 8.24549C6.05178 9.01762 5.76819 9.48036 5.52522 9.7326C5.23671 10.0321 4.85206 10.197 4.44208 10.197C4.0321 10.197 3.64745 10.0321 3.35898 9.7326ZM3.91777 9.19429C4.05864 9.34054 4.24489 9.42108 4.44212 9.42108C4.63935 9.42108 4.8256 9.34054 4.96647 9.19429C5.16517 8.98802 5.26239 8.66994 5.24761 8.27451C5.22837 7.75998 4.80493 7.55867 4.4422 7.54137C4.07939 7.55867 3.65587 7.75998 3.63663 8.27451C3.62185 8.66998 3.71907 8.98802 3.91777 9.19429ZM6.61892 13.6911C6.6399 13.8045 6.60941 13.9173 6.5357 14.0059C6.46199 14.0945 6.35267 14.1379 6.23745 14.1379H2.64675C2.54387 14.1379 2.44521 14.105 2.37244 14.0322C2.2997 13.9594 2.25881 13.8687 2.25881 13.7658C2.25881 13.7301 2.25881 13.7301 2.56253 12.0905C2.74056 11.1289 3.63481 10.6985 4.44204 10.6985C5.24928 10.6985 6.14353 11.1289 6.32171 12.0905L6.61892 13.6911ZM5.77106 13.362L5.55882 12.2219C5.46187 11.6987 4.92806 11.4704 4.44208 11.4704C3.9561 11.4704 3.42237 11.7006 3.3255 12.2238C3.3255 12.2239 3.20105 12.8964 3.11318 13.362H5.77106ZM9.92095 12.7025H8.3976C8.18338 12.7025 8.00966 12.8762 8.00966 13.0904C8.00966 13.3047 8.18338 13.4784 8.3976 13.4784H9.92095C10.1352 13.4784 10.3089 13.3047 10.3089 13.0904C10.3089 12.8762 10.1352 12.7025 9.92095 12.7025ZM8.0097 11.6938C8.0097 11.9081 8.18342 12.0818 8.39764 12.0818H11.2372C11.4514 12.0818 11.6251 11.9081 11.6251 11.6938C11.6251 11.4796 11.4514 11.3059 11.2372 11.3059H8.39764C8.18338 11.3059 8.0097 11.4796 8.0097 11.6938ZM9.23797 8.30035C9.23797 7.70183 9.72492 7.21492 10.3234 7.21492C10.922 7.21492 11.4089 7.70186 11.4089 8.30035C11.4089 8.89887 10.922 9.38582 10.3234 9.38582C9.72492 9.38582 9.23797 8.89887 9.23797 8.30035ZM10.0139 8.30035C10.0139 8.47104 10.1527 8.60993 10.3234 8.60993C10.4941 8.60993 10.633 8.47104 10.633 8.30035C10.633 8.12965 10.4941 7.99081 10.3234 7.99081C10.1527 7.99081 10.0139 8.12965 10.0139 8.30035Z" fill="black"/>
</svg>
