<svg width="116" height="32" viewBox="0 0 116 32" fill="none" xmlns="http://www.w3.org/2000/svg">
<g clip-path="url(#clip0_32_1045)">
<path fill-rule="evenodd" clip-rule="evenodd" d="M19.4699 0.429001L19.7941 7.79207L15.2377 0C13.9058 0.0612859 12.609 0.288919 11.3823 0.656635L15.1062 7.03912L7.22891 2.59152C6.13362 3.30944 5.13472 4.14993 4.24973 5.10424L10.69 8.73762L1.63855 8.86895C1.06024 10.0246 0.622124 11.2503 0.34173 12.5461L7.73713 12.441L0 17.0988C0.0876232 18.4295 0.341732 19.7078 0.727274 20.9248L7.03614 17.125L2.72508 25.0222C3.46112 26.099 4.31982 27.0884 5.29244 27.9551L8.80613 21.5201L9.06024 30.4766C10.2256 31.0369 11.4611 31.4572 12.7579 31.7198L12.5476 24.4181L17.2705 32C18.6024 31.8949 19.8817 31.6323 21.0997 31.2208L17.2442 25.0397L25.1391 29.1984C26.2169 28.4542 27.1982 27.5787 28.057 26.5981L21.6166 23.2011L30.5367 22.8159C31.0887 21.6514 31.5005 20.4082 31.7547 19.1037L24.4732 19.4189L32 14.6036C31.8861 13.2728 31.6057 11.9945 31.1851 10.7776L25.034 14.7261L29.2749 6.9078C28.5126 5.83967 27.6276 4.86785 26.6375 4.0186L23.448 9.77073L23.1238 1.80356C21.9759 1.20821 20.7492 0.735431 19.4611 0.429001H19.4699ZM16.0175 8.97401C19.9168 8.97401 23.0712 12.1259 23.0712 16.0219C23.0712 19.9179 19.9168 23.0698 16.0175 23.0698C12.1183 23.0698 8.96385 19.9179 8.96385 16.0219C8.96385 12.1259 12.1183 8.97401 16.0175 8.97401Z" fill="#F44848"/>
</g>
<defs>
<clipPath id="clip0_32_1045">
<rect width="116" height="32" fill="white"/>
</clipPath>
</defs>
</svg>
