<svg width="116" height="32" viewBox="0 0 116 32" fill="none" xmlns="http://www.w3.org/2000/svg">
<g clip-path="url(#clip0_32_1045)">
<path fill-rule="evenodd" clip-rule="evenodd" d="M19.4699 0.429001L19.7941 7.79207L15.2377 0C13.9058 0.0612859 12.609 0.288919 11.3823 0.656635L15.1062 7.03912L7.22891 2.59152C6.13362 3.30944 5.13472 4.14993 4.24973 5.10424L10.69 8.73762L1.63855 8.86895C1.06024 10.0246 0.622124 11.2503 0.34173 12.5461L7.73713 12.441L0 17.0988C0.0876232 18.4295 0.341732 19.7078 0.727274 20.9248L7.03614 17.125L2.72508 25.0222C3.46112 26.099 4.31982 27.0884 5.29244 27.9551L8.80613 21.5201L9.06024 30.4766C10.2256 31.0369 11.4611 31.4572 12.7579 31.7198L12.5476 24.4181L17.2705 32C18.6024 31.8949 19.8817 31.6323 21.0997 31.2208L17.2442 25.0397L25.1391 29.1984C26.2169 28.4542 27.1982 27.5787 28.057 26.5981L21.6166 23.2011L30.5367 22.8159C31.0887 21.6514 31.5005 20.4082 31.7547 19.1037L24.4732 19.4189L32 14.6036C31.8861 13.2728 31.6057 11.9945 31.1851 10.7776L25.034 14.7261L29.2749 6.9078C28.5126 5.83967 27.6276 4.86785 26.6375 4.0186L23.448 9.77073L23.1238 1.80356C21.9759 1.20821 20.7492 0.735431 19.4611 0.429001H19.4699ZM16.0175 8.97401C19.9168 8.97401 23.0712 12.1259 23.0712 16.0219C23.0712 19.9179 19.9168 23.0698 16.0175 23.0698C12.1183 23.0698 8.96385 19.9179 8.96385 16.0219C8.96385 12.1259 12.1183 8.97401 16.0175 8.97401Z" fill="#F44848"/>
<path d="M42.103 5.09945C42.103 3.83877 42.3276 2.94036 42.7769 2.40421C43.2261 1.86806 44.023 1.59998 45.1678 1.59998H47.3414L47.6457 1.90428V23.6401C47.6457 24.2487 47.7833 24.7269 48.0587 25.0747C48.3485 25.4225 48.8339 25.5964 49.515 25.5964H52.2102C52.5145 26.4803 52.6667 27.4004 52.6667 28.3568C52.6667 28.5597 52.6594 28.777 52.6449 29.0089C52.6304 29.2263 52.5942 29.4291 52.5362 29.6175C51.7682 29.7189 50.9133 29.8059 49.9714 29.8783C49.044 29.9508 48.1456 29.987 47.2762 29.987C45.5518 29.987 44.2549 29.5595 43.3855 28.7046C42.5305 27.8352 42.103 26.502 42.103 24.7052V5.09945ZM52.9058 8.16421C53.0796 8.83077 53.1666 9.50458 53.1666 10.1856C53.1666 10.9392 53.0796 11.6347 52.9058 12.2723L45.2765 12.1419L38.7775 12.2723C38.6326 11.6057 38.5601 10.9102 38.5601 10.1856C38.5601 9.53357 38.6326 8.85975 38.7775 8.16421L45.4069 8.27289L52.9058 8.16421Z" fill="#4D4D4D"/>
<path d="M58.925 20.8145V16.8368H68.2497V16.2934C68.2497 15.4675 68.1265 14.7067 67.8802 14.0112C67.6483 13.3156 67.2716 12.7577 66.7499 12.3375C66.2428 11.9173 65.5545 11.7072 64.685 11.7072C63.4243 11.7072 62.5042 12.2361 61.9246 13.2939C61.3594 14.3372 61.0769 15.8515 61.0769 17.8367V19.5538C61.0769 20.7275 61.1856 21.7998 61.4029 22.7707C61.6348 23.7416 62.0695 24.5168 62.7071 25.0964C63.3591 25.6616 64.301 25.9441 65.5327 25.9441C66.576 25.9441 67.5831 25.8065 68.554 25.5312C69.5394 25.2413 70.4812 24.8863 71.3797 24.4661C71.8144 24.9008 72.1694 25.4442 72.4447 26.0963C72.7345 26.7484 72.9229 27.3642 73.0099 27.9438C71.9376 28.7118 70.6551 29.3132 69.1626 29.7479C67.6846 30.1826 66.1776 30.4 64.6416 30.4C62.8157 30.4 61.3015 30.0884 60.0988 29.4653C58.896 28.8423 57.9397 28.0018 57.2296 26.944C56.5341 25.8717 56.0414 24.6617 55.7516 23.3141C55.4618 21.952 55.3169 20.5464 55.3169 19.0973C55.3169 16.9238 55.6502 14.9675 56.3167 13.2287C56.9833 11.4898 58.0121 10.1204 59.4032 9.12056C60.7943 8.10623 62.5694 7.59906 64.7285 7.59906C66.6268 7.59906 68.228 8.01204 69.5321 8.838C70.8508 9.64947 71.8506 10.7508 72.5317 12.1419C73.2272 13.533 73.575 15.098 73.575 16.8368C73.575 17.6773 73.5388 18.3873 73.4663 18.9669C73.3939 19.5321 73.2779 20.1479 73.1185 20.8145H58.925Z" fill="#4D4D4D"/>
<path d="M83.5538 16.5325C84.0754 15.8515 84.6551 15.1414 85.2926 14.4024C85.9447 13.6489 86.5316 12.9751 87.0532 12.381L86.9228 12.1853C86.4446 12.2433 85.8723 12.294 85.2057 12.3375C84.5536 12.381 83.8871 12.4172 83.206 12.4462C82.525 12.4752 81.9019 12.4896 81.3367 12.4896H77.4025C77.3301 12.1998 77.2795 11.8955 77.2505 11.5767C77.2215 11.258 77.2069 10.9754 77.2069 10.729C77.2069 10.3233 77.2359 9.90309 77.2939 9.46838C77.3518 9.03366 77.4243 8.61343 77.5112 8.2077H92.3785C92.6394 8.93223 92.835 9.54808 92.9654 10.0552C93.0958 10.5624 93.161 11.0116 93.161 11.4029C93.161 11.6782 93.1103 11.9752 93.0089 12.294C92.9219 12.6128 92.7698 12.9099 92.5524 13.1852L86.3794 21.4231C85.8868 22.0752 85.3434 22.7707 84.7492 23.5097C84.1696 24.2343 83.6117 24.8936 83.0756 25.4877L83.206 25.6833C83.8581 25.6109 84.5029 25.5601 85.1405 25.5312C85.7926 25.4877 86.3794 25.466 86.9011 25.466H88.6834C89.5094 25.466 90.2991 25.4225 91.0526 25.3355C91.8062 25.2341 92.4727 25.053 93.0523 24.7921C93.2552 25.2703 93.4001 25.6978 93.4871 26.0746C93.574 26.4368 93.6175 26.8136 93.6175 27.2048C93.6175 27.9873 93.3784 28.6177 92.9002 29.0958C92.4365 29.5595 91.596 29.7914 90.3788 29.7914H77.3373C77.091 29.0669 76.9099 28.4945 76.7939 28.0743C76.6925 27.6395 76.6418 27.2483 76.6418 26.9005C76.6418 26.5817 76.6998 26.2412 76.8158 25.8789C76.9462 25.5167 77.1634 25.1327 77.4677 24.7269L83.5538 16.5325Z" fill="#4D4D4D"/>
<path d="M115.398 18.9887C115.398 21.2637 115.028 23.2634 114.289 24.9878C113.55 26.6976 112.456 28.0308 111.007 28.9872C109.573 29.929 107.79 30.4 105.66 30.4C103.516 30.4 101.719 29.9218 100.27 28.9654C98.8352 27.9946 97.7556 26.6542 97.0311 24.9443C96.3066 23.2344 95.9443 21.2492 95.9443 18.9887C95.9443 16.7281 96.3066 14.7429 97.0311 13.033C97.7701 11.3232 98.8569 9.99 100.291 9.03362C101.741 8.07724 103.53 7.59906 105.66 7.59906C107.805 7.59906 109.594 8.08449 111.029 9.05536C112.478 10.0118 113.565 11.3449 114.289 13.0548C115.028 14.7502 115.398 16.7281 115.398 18.9887ZM101.791 18.9887C101.791 20.2638 101.893 21.4448 102.096 22.5316C102.298 23.6039 102.682 24.4733 103.248 25.1399C103.813 25.792 104.617 26.118 105.66 26.118C106.733 26.118 107.544 25.792 108.095 25.1399C108.66 24.4733 109.044 23.6039 109.247 22.5316C109.45 21.4448 109.551 20.2638 109.551 18.9887C109.551 17.728 109.45 16.5543 109.247 15.4675C109.044 14.3807 108.66 13.5112 108.095 12.8592C107.544 12.1926 106.733 11.8593 105.66 11.8593C104.617 11.8593 103.813 12.1926 103.248 12.8592C102.682 13.5112 102.298 14.3807 102.096 15.4675C101.893 16.5543 101.791 17.728 101.791 18.9887Z" fill="#4D4D4D"/>
</g>
<defs>
<clipPath id="clip0_32_1045">
<rect width="116" height="32" fill="white"/>
</clipPath>
</defs>
</svg>
